<?xml version="1.0" encoding="UTF-8"?>
<svg width="506px" height="685px" viewBox="0 0 506 685" version="1.1" xmlns="http://www.w3.org/2000/svg" xmlns:xlink="http://www.w3.org/1999/xlink">
    <!-- Generator: Sketch 44.1 (41455) - http://www.bohemiancoding.com/sketch -->
    <title>homer_top-center</title>
    <desc>Created with Sketch.</desc>
    <defs></defs>
    <g id="Page-1" stroke="none" stroke-width="1" fill="none" fill-rule="evenodd">
        <g id="homer_top-center">
            <g id="Homer_Simpson" transform="translate(51.000000, 32.000000)" fill-rule="nonzero">
                <path d="M519.154253,1036.51595 C522.391762,1031.36951 525.368941,1026.09573 528.146719,1020.74443 C538.166658,1001.36569 545.190031,980.921129 549.067288,959.981024 C552.529124,941.23902 552.797763,922.596678 551.725978,910.922376 C556.641786,907.461888 557.292611,905.645823 557.624948,904.737791 C558.837975,901.238546 556.910424,891.236351 554.675463,883.055757 C552.13586,873.8647 547.28375,859.291893 538.249742,841.945158 C525.028297,816.523028 507.680343,794.099065 486.693306,775.301694 C482.976679,771.968552 479.102191,768.732303 475.14739,765.642779 C466.260163,741.3723 448.779275,694.326272 438.396535,671.694679 C441.888836,669.726354 447.785035,665.615294 446.012575,661.066828 C438.463003,641.945555 422.926281,619.325036 407.539111,602.072427 C393.666841,586.525146 380.846968,575.81978 374.6849,572.724719 C374.446725,569.948024 374.00361,566.659176 373.463564,562.758514 C372.832125,558.318015 372.186839,553.708645 371.81573,549.17679 C371.513858,545.37579 371.350459,540.974049 371.220294,536.295469 C370.716251,520.288635 370.259288,512.185556 365.958303,506.89793 C360.383361,500.026785 124.565841,412.487509 123.062019,437.109574 C104.863838,436.423013 101.155519,448.551332 96.3809545,472.522825 C95.5999642,476.553602 94.8882106,480.0307 94.1930739,482.303549 C90.6426146,493.604119 83.2038207,499.434349 82.6194627,518.431045 C82.4532946,524.341559 85.8846668,530.539985 93.0409748,537.253332 C89.977942,544.271202 84.1315928,561.786808 82.4255999,569.125812 C79.013614,569.651806 75.5462388,570.338367 72.0622467,571.199336 C49.7707903,576.64476 32.1818923,591.342145 19.7358984,614.859623 C5.89963101,641.045828 1.80635574,671.697448 0.82319423,692.78151 C-0.331674365,716.739161 2.12207522,740.66636 7.02957438,753.724858 C8.96820272,758.91559 20.7439851,763.120776 26.3216958,763.8018 C29.5176631,776.536396 33.8878853,792.811764 39.0058641,811.04992 C32.9434963,819.980748 26.9586737,833.448968 21.1760223,851.047626 C16.1715917,866.290384 11.5022669,884.107745 7.71086377,902.653193 C4.24348851,919.545912 1.71773273,935.857269 0.621022989,948.638928 C-1.24282968,969.883556 1.58202875,972.505222 2.6427354,973.479696 C5.17403011,975.852206 9.84058547,978.125055 16.5897816,980.309315 C22.5607568,1007.38694 36.8179835,1036.10899 58.9875833,1065.70309 C80.7666879,1094.77119 104.730904,1117.46922 121.256326,1131.6157 C125.853644,1185.72943 128.155073,1236.40481 128.155073,1283.21276 C128.155073,1317.9699 528.902784,1103.80721 519.154253,1036.51595 Z" id="Shape" fill="#010101"></path>
                <path d="M372.935551,584.491577 C374.2629,583.360133 374.915467,581.580143 375.095964,579 C381.48279,583.160796 392.85134,593.32976 404.239328,606.266973 C415.363513,618.872894 430.225379,638.127106 440,660.138336 C430.214272,659.840735 410.195738,664.172792 401.987278,667 C394.137036,650.146248 386.047982,635.552578 379.033581,623.954569 C370.46968,609.717458 361.811366,597.091884 354,586.748851 C362.447272,588.579377 369.636616,587.251404 372.935551,584.491577" id="Shape" fill="#FFFFFF"></path>
                <path d="M366.081615,520.170351 C366.669652,524.942371 366.854464,531.04771 367.050476,536.928547 C367.207286,541.621171 367.355695,546.026323 367.658114,549.894863 C368.033338,554.535468 368.741782,559.373196 369.357821,563.646933 C370.094267,568.744754 372.071192,577.883597 370.251077,580.106707 C367.551708,582.302439 358.725553,583.203181 349.031344,579.372971 C343.23218,572.339511 338.082656,566.759834 334,562.913197 C334.543234,561.935795 335.103269,560.92554 335.677305,559.909808 C342.109309,548.506788 358.101114,519.223065 364.40991,513 C364.857938,513.895267 365.560783,515.858284 366.081615,520.170351" id="Shape" fill="#FFFFFF"></path>
                <path d="M360,508.713047 C353.468767,515.231114 339.327297,541.903157 331.210258,556.749563 C330.41463,558.162723 329.63535,559.600533 328.875144,561 C322.897036,551.57345 318.883474,535.998555 317.461153,516.570331 C316.744543,506.50019 316.916202,496.870978 317.611014,489 C329.373774,491.834538 350.125494,499.390567 360,508.713047" id="Shape" fill="#FFFFFF"></path>
                <path d="M123,443 C122.602672,448.334497 122.100784,453.085321 121.504792,457 C115.48998,451.969556 114,448.5191 114,446.341865 C114,444.009889 115.48998,443 123,443" id="Shape" fill="#FFFFFF"></path>
                <path d="M88.0040774,519.476381 C88.5761853,500.539445 95.7759007,495.975927 99.3273918,484.56713 C101.245473,478.415818 104.070083,456.944519 109.246693,449 C112.010499,458.537865 128.325247,469.694057 159.835403,483.726044 C188.20311,496.364547 222.723051,508.450654 245.5438,516.475673 C252.516883,518.923984 258.550272,521.044744 262.964071,522.663072 C262.986181,522.676951 263,522.69083 263,522.713037 C253.893258,529.305711 246.50284,548.536889 239.355637,567.179584 C236.343088,575.071362 233.454911,582.532881 230.729798,588.248383 C227.181071,595.690471 225.047412,597.539195 224.04415,597.969454 C222.435615,598.285903 213.160281,596.262299 189.275467,586.299727 C172.239365,579.182415 154.846732,570.926999 147.951036,566.657722 C145.032456,564.847859 140.964133,562.641048 136.257371,560.084478 C118.057707,550.21351 87.5950341,533.713782 88.0040774,519.476381" id="Shape" fill="#FFFFFF"></path>
                <path d="M97.3060874,540.021308 C98.5729572,541.033981 99.8869534,542.082623 101.309063,543.125731 C111.482832,550.615633 123.949163,557.341881 133.970464,562.715133 C138.627666,565.235746 142.644502,567.407735 145.455456,569.145326 C152.834904,573.677451 170.468512,581.980812 188.359929,589.365573 C220.929849,602.82637 224.819167,601.274159 226.097125,600.753989 C231.951893,598.413221 236.792057,586.499102 244.232491,567.274926 C250.602878,550.745676 258.448045,530.428589 266.420732,525 C269.750076,529.485088 274.834189,536.903052 280.104034,544.611537 C297.213707,569.601859 309.729937,587.509007 315.09958,590.34781 C316.119729,590.909484 317.417092,590.643865 318.140622,589.7391 C320.56902,586.748119 325.664221,577.725374 331.859963,566.54724 C340.331635,574.936374 356.859157,594.423402 375.28837,624.62373 C390.49358,649.533813 410.868838,688.452532 422.777969,733.92042 C403.894124,726.131696 389.337596,723.176684 388.896825,724.717828 C387.915486,728.267715 411.778102,731.748431 443.125506,749.074538 C457.316111,756.896464 470.500428,766.14886 482.570343,776.726583 C503.003816,794.650333 520.041413,816.074166 533.170287,840.428109 C542.66488,858.019835 547.812752,872.919402 550.485098,882.343343 C553.925329,894.492646 554.257986,901.155256 553.875431,902.328406 C553.559406,903.208269 550.4352,908.288233 519.165416,921.627288 C498.191374,930.561494 470.167771,940.80166 440.306236,950.419282 C408.057884,960.77289 376.241988,969.615789 348.246106,976.007247 C317.203637,983.076586 292.570366,986.773117 274.992201,987 C270.15481,969.643458 263.35474,945.69071 255.892129,919.405495 C237.543308,854.638727 214.068792,771.804331 201.932346,725.705598 C208.388669,723.20712 221.481505,715.221948 221.481505,706.03319 C221.481505,700.538197 217.217948,680.378821 206.961015,656.500779 C198.134509,635.909771 182.446946,607.372329 157.988319,588.217325 C137.219417,571.945393 113.739357,565.122305 88,567.8449 C89.8850579,560.615082 94.5200827,546.825029 97.3060874,540.021308" id="Shape" fill="#FFFFFF"></path>
                <path d="M6.26327038,693.170996 C7.26454032,672.595826 11.2418071,642.738457 24.7255757,617.339642 C36.5294358,595.129853 53.1560796,581.286766 74.1215598,576.172706 C104.565729,568.743629 132.045026,574.380435 155.763999,592.881216 C195.709107,624.060661 213.598463,682.511404 217,701.723009 C206.870486,695.574521 192.196318,692.352304 173.211128,692.119972 C154.014558,691.895938 131.274605,694.783487 107.511131,700.486673 C69.0734905,709.71632 24.4696956,727.730312 10.5826377,747 C6.98084717,733.884332 5.31206393,713.599576 6.26327038,693.170996" id="Shape" fill="#FFFFFF"></path>
                <path d="M142.813375,500.230015 C143.624395,485.692146 146.166148,480.292286 148,478.274694 C124.315994,466.774422 111.824618,457.280532 109.42779,449 C104.207721,456.997509 101.359397,478.703433 99.4224257,484.910329 C95.8411186,496.427415 88.5809591,501.034249 88.0040481,520.159337 C87.6473109,532.676812 110.941136,546.954075 129.073419,557 C127.476463,538.309255 141.589878,522.104071 142.813375,500.230015" id="Shape" fill="#B5D9D9"></path>
                <path d="M109,573.583527 C97.7179506,572.289126 85.9141719,573.146528 73.6052268,576.172328 C52.8050696,581.286316 36.3029674,595.12921 24.5847634,617.352517 C11.2047551,642.737149 7.26004053,672.5941 6.25798916,693.168982 C5.32218912,713.60834 6.97295143,733.895578 10.5477628,747 C21.6365792,731.533574 52.3606336,716.863702 83.7830874,706.917838 C68.443144,619.899831 94.4937191,584.859746 109,573.583527" id="Shape" fill="#B5D9D9"></path>
                <path d="M145,570.293793 C142.229322,568.603985 138.536946,566.576782 134.319483,564.268889 C124.217121,558.748659 111.662485,551.861839 101.412093,544.181149 C99.9736868,543.120766 98.6525872,542.046207 97.376176,541 C94.5691886,547.971877 89.9188064,562.116935 88,569.511264 C106.14068,567.560613 123.178116,570.404368 138.925176,578 C141.064632,574.957778 143.424735,571.839004 145,570.293793" id="Shape" fill="#B5D9D9"></path>
                <path d="M265.3175,537.025292 C273.850582,539.348638 286.047709,560.890661 299,574 C293.283108,566.272763 286.279438,556.102335 278.196183,544.30856 C273.027262,536.725681 268.03282,529.423346 264.753172,525 C258.540107,529.246304 252.411555,542.712451 247,556.235798 C254.614344,545.50428 263.5918,536.543191 265.3175,537.025292" id="Shape" fill="#B5D9D9"></path>
                <path d="M123,443 C122.602672,448.334497 122.100784,453.085321 121.504792,457 C115.48998,451.969556 114,448.5191 114,446.341865 C114,444.009889 115.48998,443 123,443" id="Shape" fill="#B5D9D9"></path>
                <path d="M366.081615,520.170351 C366.669652,524.942371 366.854464,531.04771 367.050476,536.928547 C367.207286,541.621171 367.355695,546.026323 367.658114,549.894863 C368.033338,554.535468 368.741782,559.373196 369.357821,563.646933 C370.094267,568.744754 372.071192,577.883597 370.251077,580.106707 C367.551708,582.302439 358.725553,583.203181 349.031344,579.372971 C343.23218,572.339511 338.082656,566.759834 334,562.913197 C334.543234,561.935795 335.103269,560.92554 335.677305,559.909808 C342.109309,548.506788 358.101114,519.223065 364.40991,513 C364.857938,513.895267 365.560783,515.858284 366.081615,520.170351" id="Shape" fill="#B5D9D9"></path>
                <path d="M372.935551,584.491577 C374.2629,583.360133 374.915467,581.580143 375.095964,579 C381.48279,583.160796 392.85134,593.32976 404.239328,606.266973 C415.363513,618.872894 430.225379,638.127106 440,660.138336 C430.214272,659.840735 410.195738,664.172792 401.987278,667 C394.137036,650.146248 386.047982,635.552578 379.033581,623.954569 C370.46968,609.717458 361.811366,597.091884 354,586.748851 C362.447272,588.579377 369.636616,587.251404 372.935551,584.491577" id="Shape" fill="#FFFFFF"></path>
                <path d="M366.081615,520.170351 C366.669652,524.942371 366.854464,531.04771 367.050476,536.928547 C367.207286,541.621171 367.355695,546.026323 367.658114,549.894863 C368.033338,554.535468 368.741782,559.373196 369.357821,563.646933 C370.094267,568.744754 372.071192,577.883597 370.251077,580.106707 C367.551708,582.302439 358.725553,583.203181 349.031344,579.372971 C343.23218,572.339511 338.082656,566.759834 334,562.913197 C334.543234,561.935795 335.103269,560.92554 335.677305,559.909808 C342.109309,548.506788 358.101114,519.223065 364.40991,513 C364.857938,513.895267 365.560783,515.858284 366.081615,520.170351" id="Shape" fill="#FFFFFF"></path>
                <path d="M360,508.713047 C353.468767,515.231114 339.327297,541.903157 331.210258,556.749563 C330.41463,558.162723 329.63535,559.600533 328.875144,561 C322.897036,551.57345 318.883474,535.998555 317.461153,516.570331 C316.744543,506.50019 316.916202,496.870978 317.611014,489 C329.373774,491.834538 350.125494,499.390567 360,508.713047" id="Shape" fill="#FFFFFF"></path>
                <path d="M123,443 C122.602672,448.334497 122.100784,453.085321 121.504792,457 C115.48998,451.969556 114,448.5191 114,446.341865 C114,444.009889 115.48998,443 123,443" id="Shape" fill="#FFFFFF"></path>
                <path d="M88.0040774,519.476381 C88.5761853,500.539445 95.7759007,495.975927 99.3273918,484.56713 C101.245473,478.415818 104.070083,456.944519 109.246693,449 C112.010499,458.537865 128.325247,469.694057 159.835403,483.726044 C188.20311,496.364547 222.723051,508.450654 245.5438,516.475673 C252.516883,518.923984 258.550272,521.044744 262.964071,522.663072 C262.986181,522.676951 263,522.69083 263,522.713037 C253.893258,529.305711 246.50284,548.536889 239.355637,567.179584 C236.343088,575.071362 233.454911,582.532881 230.729798,588.248383 C227.181071,595.690471 225.047412,597.539195 224.04415,597.969454 C222.435615,598.285903 213.160281,596.262299 189.275467,586.299727 C172.239365,579.182415 154.846732,570.926999 147.951036,566.657722 C145.032456,564.847859 140.964133,562.641048 136.257371,560.084478 C118.057707,550.21351 87.5950341,533.713782 88.0040774,519.476381" id="Shape" fill="#FFFFFF"></path>
                <path d="M97.3060874,540.021308 C98.5729572,541.033981 99.8869534,542.082623 101.309063,543.125731 C111.482832,550.615633 123.949163,557.341881 133.970464,562.715133 C138.627666,565.235746 142.644502,567.407735 145.455456,569.145326 C152.834904,573.677451 170.468512,581.980812 188.359929,589.365573 C220.929849,602.82637 224.819167,601.274159 226.097125,600.753989 C231.951893,598.413221 236.792057,586.499102 244.232491,567.274926 C250.602878,550.745676 258.448045,530.428589 266.420732,525 C269.750076,529.485088 274.834189,536.903052 280.104034,544.611537 C297.213707,569.601859 309.729937,587.509007 315.09958,590.34781 C316.119729,590.909484 317.417092,590.643865 318.140622,589.7391 C320.56902,586.748119 325.664221,577.725374 331.859963,566.54724 C340.331635,574.936374 356.859157,594.423402 375.28837,624.62373 C390.49358,649.533813 410.868838,688.452532 422.777969,733.92042 C403.894124,726.131696 389.337596,723.176684 388.896825,724.717828 C387.915486,728.267715 411.778102,731.748431 443.125506,749.074538 C457.316111,756.896464 470.500428,766.14886 482.570343,776.726583 C503.003816,794.650333 520.041413,816.074166 533.170287,840.428109 C542.66488,858.019835 547.812752,872.919402 550.485098,882.343343 C553.925329,894.492646 554.257986,901.155256 553.875431,902.328406 C553.559406,903.208269 550.4352,908.288233 519.165416,921.627288 C498.191374,930.561494 470.167771,940.80166 440.306236,950.419282 C408.057884,960.77289 376.241988,969.615789 348.246106,976.007247 C317.203637,983.076586 292.570366,986.773117 274.992201,987 C270.15481,969.643458 263.35474,945.69071 255.892129,919.405495 C237.543308,854.638727 214.068792,771.804331 201.932346,725.705598 C208.388669,723.20712 221.481505,715.221948 221.481505,706.03319 C221.481505,700.538197 217.217948,680.378821 206.961015,656.500779 C198.134509,635.909771 182.446946,607.372329 157.988319,588.217325 C137.219417,571.945393 113.739357,565.122305 88,567.8449 C89.8850579,560.615082 94.5200827,546.825029 97.3060874,540.021308" id="Shape" fill="#FFFFFF"></path>
                <path d="M6.26327038,693.170996 C7.26454032,672.595826 11.2418071,642.738457 24.7255757,617.339642 C36.5294358,595.129853 53.1560796,581.286766 74.1215598,576.172706 C104.565729,568.743629 132.045026,574.380435 155.763999,592.881216 C195.709107,624.060661 213.598463,682.511404 217,701.723009 C206.870486,695.574521 192.196318,692.352304 173.211128,692.119972 C154.014558,691.895938 131.274605,694.783487 107.511131,700.486673 C69.0734905,709.71632 24.4696956,727.730312 10.5826377,747 C6.98084717,733.884332 5.31206393,713.599576 6.26327038,693.170996" id="Shape" fill="#FFFFFF"></path>
                <path d="M142.813375,500.230015 C143.624395,485.692146 146.166148,480.292286 148,478.274694 C124.315994,466.774422 111.824618,457.280532 109.42779,449 C104.207721,456.997509 101.359397,478.703433 99.4224257,484.910329 C95.8411186,496.427415 88.5809591,501.034249 88.0040481,520.159337 C87.6473109,532.676812 110.941136,546.954075 129.073419,557 C127.476463,538.309255 141.589878,522.104071 142.813375,500.230015" id="Shape" fill="#B5D9D9"></path>
                <path d="M109,573.583527 C97.7179506,572.289126 85.9141719,573.146528 73.6052268,576.172328 C52.8050696,581.286316 36.3029674,595.12921 24.5847634,617.352517 C11.2047551,642.737149 7.26004053,672.5941 6.25798916,693.168982 C5.32218912,713.60834 6.97295143,733.895578 10.5477628,747 C21.6365792,731.533574 52.3606336,716.863702 83.7830874,706.917838 C68.443144,619.899831 94.4937191,584.859746 109,573.583527" id="Shape" fill="#B5D9D9"></path>
                <path d="M145,570.293793 C142.229322,568.603985 138.536946,566.576782 134.319483,564.268889 C124.217121,558.748659 111.662485,551.861839 101.412093,544.181149 C99.9736868,543.120766 98.6525872,542.046207 97.376176,541 C94.5691886,547.971877 89.9188064,562.116935 88,569.511264 C106.14068,567.560613 123.178116,570.404368 138.925176,578 C141.064632,574.957778 143.424735,571.839004 145,570.293793" id="Shape" fill="#B5D9D9"></path>
                <path d="M265.3175,537.025292 C273.850582,539.348638 286.047709,560.890661 299,574 C293.283108,566.272763 286.279438,556.102335 278.196183,544.30856 C273.027262,536.725681 268.03282,529.423346 264.753172,525 C258.540107,529.246304 252.411555,542.712451 247,556.235798 C254.614344,545.50428 263.5918,536.543191 265.3175,537.025292" id="Shape" fill="#B5D9D9"></path>
                <path d="M123,443 C122.602672,448.334497 122.100784,453.085321 121.504792,457 C115.48998,451.969556 114,448.5191 114,446.341865 C114,444.009889 115.48998,443 123,443" id="Shape" fill="#B5D9D9"></path>
                <path d="M366.081615,520.170351 C366.669652,524.942371 366.854464,531.04771 367.050476,536.928547 C367.207286,541.621171 367.355695,546.026323 367.658114,549.894863 C368.033338,554.535468 368.741782,559.373196 369.357821,563.646933 C370.094267,568.744754 372.071192,577.883597 370.251077,580.106707 C367.551708,582.302439 358.725553,583.203181 349.031344,579.372971 C343.23218,572.339511 338.082656,566.759834 334,562.913197 C334.543234,561.935795 335.103269,560.92554 335.677305,559.909808 C342.109309,548.506788 358.101114,519.223065 364.40991,513 C364.857938,513.895267 365.560783,515.858284 366.081615,520.170351" id="Shape" fill="#B5D9D9"></path>
            </g>
            <g id="Group" transform="translate(19.000000, 54.000000)">
                <path d="M173,308 C171.865972,324.254402 163.444499,330.506429 153.245027,331.0232 C136.462435,331.873515 114.865972,317.195832 113,306 C111,294 113.333333,285.666667 120,281 C8.66666667,211 -17,135.666667 43,55 C105.666667,-15.6666667 175.666667,-18 253,48 C282.333333,48.6666667 292.333333,52.6666667 283,60 C281.996852,62.5078703 306,56 327,73 C335.800228,84.1469552 339.437522,95.8102039 337.911882,107.989746 L337.911881,107.989746 C337.570697,110.713505 338.649835,113.421991 340.770638,115.164823 C348.226849,121.292181 349.636636,136.23724 345,160 C388.333333,180 418.666667,191.333333 436,194 L435,218 L422,241 L404,256 L378,276 L362,295 L350,315 L344,334 L347,354 L360,363 L350,381 L354,395 L348,406 L341,415 C351,447 354.666667,464.333333 352,467 C349.333333,469.666667 348,471 348,471 C348,498.333333 350,518.666667 354,532 C357.861901,544.873003 356.130947,556.192435 348.80714,565.958296 L348.80714,565.958296 C348.475786,566.400137 347.848988,566.489704 347.407148,566.15835 C347.333239,566.102923 347.267367,566.037522 347.211412,565.964012 L297,500 C206.333333,470 159.666667,450.666667 157,442 C153,429 162,338.0232 152,331.0232" id="Combined-Shape" stroke="#000000" stroke-width="3" fill="#F4DE12"></path>
                <path d="M277,144 C274.666667,148 280.666667,144 295,132 C304.333333,114.666667 318.333333,107 337,109 C339,103 338.333333,96 335,88 C311,87.3333333 288.666667,96.3333333 268,115 C269,117 280.5,138 277,144 Z" id="Path-7" fill="#FFFFFF"></path>
                <path d="M342,421 C355.333333,407 361.333333,395.666667 360,387 C366.743943,377.792401 370.410609,371.125734 371,367 C371.884086,360.811399 370,358 356,352 C342,346 354,325 360,309 C378,282 448.049003,243.577311 445,202 C436,171 360,153 351,158 C284,206 221,257 211,316 C195.616733,401.248939 227.377569,443.667615 306.282508,443.256026 L306.282508,443.256026 C312.652894,443.222797 318.82151,441.018245 323.769983,437.00632 C329.253501,432.560612 335.330173,427.225172 342,421 Z" id="Path-2" stroke="#000000" stroke-width="2" fill="#D2B16B"></path>
                <path d="M156.254011,331.449769 C166.913248,328.554832 169.346726,325.079464 172.013339,311.408722 C172.013339,301.916665 167.441993,292.806488 162.956266,292.806488 C158.470538,292.806488 154.834138,300.501321 154.834138,309.993378 C154.834138,319.485435 151.768283,331.449769 156.254011,331.449769 Z" id="Oval" fill="#F4DE12" transform="translate(162.912474, 312.128129) rotate(10.000000) translate(-162.912474, -312.128129) "></path>
                <path d="M90,290 L67.5110266,255.329499 L67.5110266,255.329499 C67.2104781,254.866154 67.3424512,254.246895 67.8057968,253.946347 C68.0557721,253.784201 68.3650322,253.741971 68.6493279,253.831162 L114.371474,268.175365 L114.371474,268.175365 C114.898435,268.340685 115.45964,268.047519 115.624961,267.520558 C115.713624,267.237945 115.67244,266.930568 115.512509,266.681263 L85.4043741,219.747995 L85.4043741,219.747995 C85.1061654,219.28314 85.2412587,218.664555 85.7061135,218.366346 C86.0315542,218.157573 86.4481889,218.155118 86.7760672,218.360042 L137.800606,250.250379 L137.800606,250.250379 C138.268942,250.543089 138.411315,251.160039 138.118605,251.628376 C138.058402,251.7247 137.982228,251.810063 137.893353,251.880801" id="Path-3" stroke="#000000" stroke-width="2"></path>
                <path d="M37,94 C12.9886735,76 8,-9 90,16" id="Path-5" stroke="#000000" stroke-width="2"></path>
                <path d="M19,128 C-5,110 -17,37 55,42" id="Path-6" stroke="#000000" stroke-width="2"></path>
                <path d="M252,195 C270,180 285,142 266,117 C232,117 190,151 165,195 C180,214 220,224 252,195 Z" id="eye-white-right" fill="#FFFFFF"></path>
                <path d="M207,153 C210.865993,153 214,149.865993 214,146 C214,143 213,141 210,141 C206,144 206.283832,143.439177 205,145 C203.716168,146.560823 203,147 201,149 C201,151 203.134007,153 207,153 Z" id="eye-pupil-right" fill="#000000"></path>
                <path d="M309.118073,100.087462 C312.984067,100.087462 316.118073,96.953455 316.118073,93.0874618 C316.118073,90.0874618 315.118073,88.0874618 312.118073,88.0874618 C308.118073,91.0874618 308.401905,90.5266384 307.118073,92.0874618 C305.834242,93.6482852 305.118073,94.0874618 303.118073,96.0874618 C303.118073,98.0874618 305.25208,100.087462 309.118073,100.087462 Z" id="Oval-3" fill="#000000" transform="translate(309.618073, 94.087462) rotate(22.000000) translate(-309.618073, -94.087462) "></path>
                <path d="M143,276 C136.333333,273.333333 128.666667,275 120,281" id="Path-11" stroke="#000000" stroke-width="2"></path>
                <path d="M267,116 C283,105 306,85 336,90 C339,98 338,99 338,110 C335.613826,113.579261 325.773827,105.913126 312,114 C306.223583,117.391444 300.742457,124.905727 293,133 C287.838362,138.396182 282.505029,143.396182 277,148 C277,136 273.666667,125.333333 267,116 Z" id="Path-10" stroke="#000000" stroke-width="2"></path>
                <path d="M146,150 C146,178 177,241 246,200 C289.333333,160 287,123.333333 239,90" id="Path-8" stroke="#000000" stroke-width="2"></path>
                <path d="M166,197 C166,174 234,109 268,117" id="Path-9" stroke="#000000" stroke-width="3"></path>
                <path d="M424,210 C304,230 248,352 247,387 C248.758881,397.553284 255.158253,404.239491 266.198116,407.058622 L266.198116,407.058622 C268.846011,407.734787 271.616287,406.536195 272.936304,404.143268 C283.873353,384.31658 306.894585,371.268824 342,365 C342,354 293,331 424,210 Z" id="mouth-inner" stroke="#000000" stroke-width="2" fill="#000000"></path>
                <path d="M274,405 L277,450 C283.666667,456 287.666667,454 289,444 C293,443.333333 296,444.666667 298,448 L301,454 L301,454 C302.104569,456.209139 304.790861,457.104569 307,456 L307,456 L307,456 C308.962071,455.018964 311.347931,455.814251 312.328967,457.776322 C312.39502,457.90843 312.453654,458.044119 312.504594,458.182757 C315.676343,466.814995 317.841483,471.420741 319,472 C321,473 331,466 333,457 C339,455 342.666667,453.333333 344,452 C341.333333,425.333333 338.666667,412.333333 336,413 C333.333333,413.666667 319.666667,406 295,390 C286.333333,380 280.666667,379.333333 278,388 C275.333333,396.666667 274,402.333333 274,405 Z" id="Path-12" fill="#B2CBED"></path>
                <path d="M295.433433,367.264489 C318.638152,355.702805 334.160342,364.947976 342,395 C332,422.333333 317.666667,429.333333 299,416 C293.089768,403.757271 288.089768,397.090605 284,396 C277.865348,394.364093 273.883259,407.819001 269,408 C264.116741,408.180999 241.399029,394.692763 247,384 C258.259588,365.859553 275.095074,361.805586 297.506459,371.838099 L297.506447,371.838126 C297.753121,371.94855 298.042607,371.838098 298.153031,371.591423 C298.246449,371.38274 298.182911,371.137183 298,371 L295.27939,368.959543 L295.27939,368.959543 C294.837563,368.628172 294.74802,368.001371 295.07939,367.559543 C295.172822,367.434967 295.294055,367.333933 295.433433,367.264489 Z" id="tounge" stroke="#000000" stroke-width="2" fill="#EF3D25"></path>
                <g id="teeth" transform="translate(260.000000, 209.000000)" stroke="#000000" stroke-width="2" fill="#FFFFFF">
                    <path d="M160,1 L164,-2.27373675e-13 C166.666667,12 162.666667,18.6666667 152,20 C155.333333,29.3333333 151.333333,34.3333333 140,35 C137.333333,45 129.333333,51 116,53 C118,62.3333333 111.666667,68.3333333 97,71 C97.6666667,83 91.6666667,88.3333333 79,87 C88.3333333,87 88.3333333,92 79,102 C67.6666667,89.3333333 70,79 86,71 C86,65 90,60.6666667 98,58 C98.6666667,52 99.6666667,49 101,49 C103,49 121,41 122,37 C122.666667,34.3333333 124.333333,31.3333333 127,28 C139,25.3333333 145.333333,23.6666667 146,23 C147,22 148,22 152,19" id="Path-15"></path>
                    <path d="M0,133 C36.6666667,61 89.6666667,16.6666667 159,0 C162.305119,14.5425255 151.518518,23.8416201 126.640196,27.8972837 L126.640196,27.8972835 C126.255046,27.9600706 125.941604,28.2411663 125.837402,28.6172307 C122.259823,41.528705 109.314022,47.6562948 87,47 C84.3333333,59.6666667 74,69.6666667 56,77 C56.6666667,94.3333333 47,104.333333 27,107 C25,127.666667 16,136.333333 0,133 Z" id="Path-14"></path>
                </g>
                <path d="M130,307 C134.666667,299 141,295.333333 149,296" id="Path-13" stroke="#000000" stroke-width="2"></path>
                <path d="M146,315 C146,315 138,303 141,298" id="Path-16" stroke="#000000" stroke-width="2"></path>
            </g>
        </g>
    </g>
</svg>